<mxfile host="app.diagrams.net" modified="2021-01-30T07:58:41.521Z" agent="5.0 (Windows NT 10.0; Win64; x64) AppleWebKit/537.36 (KHTML, like Gecko) Chrome/88.0.4324.104 Safari/537.36" etag="oqNsl4vcLpj5V2dF8_bC" version="14.2.9" type="github" pages="2">
  <diagram id="i_hNfcPrmin2izpcRfxH" name="Page-1">
    <mxGraphModel dx="1518" dy="762" grid="1" gridSize="10" guides="1" tooltips="1" connect="1" arrows="1" fold="1" page="1" pageScale="1" pageWidth="827" pageHeight="1169" math="0" shadow="0">
      <root>
        <mxCell id="0" />
        <mxCell id="1" parent="0" />
      </root>
    </mxGraphModel>
  </diagram>
  <diagram id="wr2X8YGQnIeDPEZbqGVH" name="Page-2">
    <mxGraphModel dx="1422" dy="762" grid="1" gridSize="10" guides="1" tooltips="1" connect="1" arrows="1" fold="1" page="1" pageScale="1" pageWidth="827" pageHeight="1169" math="0" shadow="0">
      <root>
        <mxCell id="9J-17dicBmqxRObRoHb7-0" />
        <mxCell id="9J-17dicBmqxRObRoHb7-1" parent="9J-17dicBmqxRObRoHb7-0" />
      </root>
    </mxGraphModel>
  </diagram>
</mxfile>
